<svg xmlns="http://www.w3.org/2000/svg" width="600" height="440" viewBox="0 0 600 440" role="img" aria-label="Alfa Express route network: Kraków hub connected to 15 European countries">
  <rect x="1" y="1" width="598" height="438" rx="16" fill="#ffffff" stroke="#e5e7eb"/>

  <!-- routes -->
  <g stroke="#e3bfc4" stroke-width="1.6" stroke-dasharray="5 4" fill="none">
    <path d="M455 165 L395 52"/>
    <path d="M455 165 L330 97"/>
    <path d="M455 165 L255 142"/>
    <path d="M455 165 L330 177"/>
    <path d="M455 165 L235 177"/>
    <path d="M455 165 L262 207"/>
    <path d="M455 165 L400 217"/>
    <path d="M455 165 L390 262"/>
    <path d="M455 165 L215 252"/>
    <path d="M455 165 L275 307"/>
    <path d="M455 165 L345 322"/>
    <path d="M455 165 L185 322"/>
    <path d="M455 165 L135 342"/>
    <path d="M455 165 L65 352"/>
  </g>

  <!-- country nodes -->
  <g font-family="Inter,Arial,sans-serif" font-size="13" font-weight="600" text-anchor="middle">
    <g>
      <circle cx="395" cy="52" r="17" fill="#fdf4f5" stroke="#911421" stroke-width="1.5"/>
      <text x="395" y="57" fill="#911421">SE</text>
    </g>
    <g>
      <circle cx="330" cy="97" r="17" fill="#fdf4f5" stroke="#911421" stroke-width="1.5"/>
      <text x="330" y="102" fill="#911421">DK</text>
    </g>
    <g>
      <circle cx="255" cy="142" r="17" fill="#fdf4f5" stroke="#911421" stroke-width="1.5"/>
      <text x="255" y="147" fill="#911421">NL</text>
    </g>
    <g>
      <circle cx="330" cy="177" r="17" fill="#fdf4f5" stroke="#911421" stroke-width="1.5"/>
      <text x="330" y="182" fill="#911421">DE</text>
    </g>
    <g>
      <circle cx="235" cy="177" r="17" fill="#fdf4f5" stroke="#911421" stroke-width="1.5"/>
      <text x="235" y="182" fill="#911421">BE</text>
    </g>
    <g>
      <circle cx="262" cy="207" r="15" fill="#fdf4f5" stroke="#911421" stroke-width="1.5"/>
      <text x="262" y="212" fill="#911421">LU</text>
    </g>
    <g>
      <circle cx="400" cy="217" r="17" fill="#fdf4f5" stroke="#911421" stroke-width="1.5"/>
      <text x="400" y="222" fill="#911421">CZ</text>
    </g>
    <g>
      <circle cx="390" cy="262" r="17" fill="#fdf4f5" stroke="#911421" stroke-width="1.5"/>
      <text x="390" y="267" fill="#911421">AT</text>
    </g>
    <g>
      <circle cx="215" cy="252" r="17" fill="#fdf4f5" stroke="#911421" stroke-width="1.5"/>
      <text x="215" y="257" fill="#911421">FR</text>
    </g>
    <g>
      <circle cx="275" cy="307" r="15" fill="#fdf4f5" stroke="#911421" stroke-width="1.5"/>
      <text x="275" y="312" fill="#911421">MC</text>
    </g>
    <g>
      <circle cx="345" cy="322" r="17" fill="#fdf4f5" stroke="#911421" stroke-width="1.5"/>
      <text x="345" y="327" fill="#911421">IT</text>
    </g>
    <g>
      <circle cx="185" cy="322" r="15" fill="#fdf4f5" stroke="#911421" stroke-width="1.5"/>
      <text x="185" y="327" fill="#911421">AD</text>
    </g>
    <g>
      <circle cx="135" cy="342" r="17" fill="#fdf4f5" stroke="#911421" stroke-width="1.5"/>
      <text x="135" y="347" fill="#911421">ES</text>
    </g>
    <g>
      <circle cx="65" cy="352" r="17" fill="#fdf4f5" stroke="#911421" stroke-width="1.5"/>
      <text x="65" y="357" fill="#911421">PT</text>
    </g>

    <!-- hub: Kraków, Poland -->
    <g>
      <circle cx="455" cy="165" r="26" fill="#911421"/>
      <circle cx="455" cy="165" r="32" fill="none" stroke="#911421" stroke-width="1" opacity="0.35"/>
      <circle cx="455" cy="165" r="38" fill="none" stroke="#911421" stroke-width="1" opacity="0.15"/>
      <text x="455" y="171" fill="#ffffff" font-size="15" font-weight="700">PL</text>
      <text x="455" y="215" fill="#3f3f46" font-size="12" font-weight="600">Kraków</text>
    </g>
  </g>
</svg>
