<svg xmlns="http://www.w3.org/2000/svg" viewBox="0 0 420 280">
  <defs>
    <linearGradient id="bg5" x1="0" y1="0" x2="0" y2="1">
      <stop offset="0%" stop-color="#fefce8"/><stop offset="100%" stop-color="#fef9c3"/>
    </linearGradient>
  </defs>
  <rect width="420" height="280" fill="url(#bg5)" rx="10"/>
  <rect x="0" y="210" width="420" height="70" fill="#374151"/>
  <rect x="40"  y="232" width="55" height="5" rx="2" fill="#fbbf24" opacity="0.7"/>
  <rect x="170" y="232" width="55" height="5" rx="2" fill="#fbbf24" opacity="0.7"/>
  <rect x="310" y="232" width="55" height="5" rx="2" fill="#fbbf24" opacity="0.7"/>
  <!-- Express Delivery Van -->
  <!-- Van body -->
  <path d="M80 145 L80 215 L340 215 L340 145 L310 120 L170 120 L80 145 Z" fill="#1e3a8a"/>
  <!-- Side panel -->
  <rect x="88" y="148" width="190" height="60" rx="3" fill="#1d4ed8"/>
  <text x="183" y="180" text-anchor="middle" font-family="Montserrat,Arial,sans-serif" font-weight="700" font-size="12" fill="white">ALFA EXPRESS</text>
  <text x="183" y="196" text-anchor="middle" font-family="Montserrat,Arial,sans-serif" font-size="9" fill="#F97316" letter-spacing="2">EXPRESS VAN</text>
  <!-- Orange stripe -->
  <rect x="80" y="148" width="260" height="5" rx="2" fill="#F97316"/>
  <!-- Windshield -->
  <path d="M285 125 L335 148 L335 175 L285 175 Z" fill="#93c5fd" opacity="0.85"/>
  <!-- Side windows -->
  <rect x="96" y="132" width="50" height="35" rx="3" fill="#93c5fd" opacity="0.7"/>
  <rect x="155" y="128" width="55" height="38" rx="3" fill="#93c5fd" opacity="0.7"/>
  <rect x="220" y="125" width="55" height="40" rx="3" fill="#93c5fd" opacity="0.7"/>
  <!-- Door lines -->
  <line x1="155" y1="120" x2="155" y2="215" stroke="rgba(255,255,255,0.2)" stroke-width="1.5"/>
  <line x1="220" y1="120" x2="220" y2="215" stroke="rgba(255,255,255,0.2)" stroke-width="1.5"/>
  <line x1="285" y1="120" x2="285" y2="215" stroke="rgba(255,255,255,0.2)" stroke-width="1.5"/>
  <!-- Door handles -->
  <rect x="205" y="170" width="14" height="4" rx="2" fill="rgba(255,255,255,0.4)"/>
  <!-- Front bumper -->
  <rect x="330" y="188" width="22" height="18" rx="3" fill="#374151"/>
  <!-- Headlights -->
  <rect x="332" y="155" width="16" height="10" rx="2" fill="#fef3c7"/>
  <rect x="333" y="148" width="10" height="5" rx="2" fill="#F97316"/>
  <!-- Rear door -->
  <rect x="78" y="145" width="4" height="70" rx="2" fill="#162d6e"/>
  <rect x="82" y="178" width="6" height="4" rx="1" fill="rgba(255,255,255,0.4)"/>
  <!-- Wheels -->
  <circle cx="140" cy="222" r="20" fill="#111827"/><circle cx="140" cy="222" r="13" fill="#374151"/><circle cx="140" cy="222" r="5" fill="#111827"/>
  <circle cx="295" cy="222" r="20" fill="#111827"/><circle cx="295" cy="222" r="13" fill="#374151"/><circle cx="295" cy="222" r="5" fill="#111827"/>
  <!-- Roof rack hint -->
  <rect x="80" y="117" width="230" height="5" rx="2" fill="#162d6e"/>
  <rect x="120" y="112" width="8"  height="8" rx="1" fill="#374151"/>
  <rect x="200" y="112" width="8"  height="8" rx="1" fill="#374151"/>
  <rect x="280" y="112" width="8"  height="8" rx="1" fill="#374151"/>
  <rect x="120" y="112" width="168" height="3" fill="#4b5563"/>
</svg>
