<svg xmlns="http://www.w3.org/2000/svg" viewBox="0 0 420 280">
  <defs>
    <linearGradient id="rfbg" x1="0" y1="0" x2="0" y2="1">
      <stop offset="0%" stop-color="#f0f9ff"/><stop offset="100%" stop-color="#dbeafe"/>
    </linearGradient>
  </defs>
  <rect width="420" height="280" fill="url(#rfbg)" rx="10"/>
  <!-- Road -->
  <rect x="0" y="210" width="420" height="70" fill="#374151" rx="0"/>
  <rect x="20" y="232" width="60" height="5" rx="2" fill="#fbbf24" opacity="0.7"/>
  <rect x="150" y="232" width="60" height="5" rx="2" fill="#fbbf24" opacity="0.7"/>
  <rect x="280" y="232" width="60" height="5" rx="2" fill="#fbbf24" opacity="0.7"/>
  <!-- Refrigerated Trailer - white with blue bands -->
  <rect x="15" y="110" width="250" height="110" rx="5" fill="white" stroke="#e2e8f0" stroke-width="1.5"/>
  <rect x="15" y="110" width="250" height="18" rx="5" fill="#0ea5e9"/>
  <rect x="15" y="202" width="250" height="8" rx="3" fill="#0ea5e9"/>
  <rect x="15" y="155" width="250" height="6" fill="#bae6fd"/>
  <text x="140" y="150" text-anchor="middle" font-family="Montserrat,Arial,sans-serif" font-weight="700" font-size="13" fill="#0369a1">ALFA EXPRESS</text>
  <text x="140" y="168" text-anchor="middle" font-family="Montserrat,Arial,sans-serif" font-size="9" fill="#0ea5e9" letter-spacing="2">REFRIGERATED</text>
  <!-- Snowflake icon -->
  <text x="78" y="195" text-anchor="middle" font-family="Arial,sans-serif" font-size="18" fill="#0ea5e9">❄</text>
  <text x="200" y="195" text-anchor="middle" font-family="Arial,sans-serif" font-size="18" fill="#0ea5e9">❄</text>
  <!-- Cab -->
  <path d="M265 130 L265 215 L370 215 L370 175 L335 130 Z" fill="#0369a1"/>
  <rect x="272" y="138" width="58" height="42" rx="3" fill="#7dd3fc" opacity="0.85"/>
  <rect x="332" y="148" width="30" height="28" rx="2" fill="#bae6fd" opacity="0.7"/>
  <rect x="358" y="180" width="20" height="22" rx="3" fill="#1e3a8a"/>
  <rect x="360" y="155" width="14" height="9" rx="2" fill="#fef3c7"/>
  <!-- Wheels -->
  <circle cx="80"  cy="222" r="22" fill="#111827"/><circle cx="80"  cy="222" r="14" fill="#374151"/><circle cx="80"  cy="222" r="6" fill="#111827"/>
  <circle cx="170" cy="222" r="22" fill="#111827"/><circle cx="170" cy="222" r="14" fill="#374151"/><circle cx="170" cy="222" r="6" fill="#111827"/>
  <circle cx="320" cy="222" r="20" fill="#111827"/><circle cx="320" cy="222" r="13" fill="#374151"/><circle cx="320" cy="222" r="5" fill="#111827"/>
  <circle cx="358" cy="223" r="16" fill="#111827"/><circle cx="358" cy="223" r="10" fill="#374151"/><circle cx="358" cy="223" r="4" fill="#111827"/>
</svg>
