<svg xmlns="http://www.w3.org/2000/svg" viewBox="0 0 420 280">
  <defs>
    <linearGradient id="bg3" x1="0" y1="0" x2="0" y2="1">
      <stop offset="0%" stop-color="#fff7ed"/><stop offset="100%" stop-color="#ffedd5"/>
    </linearGradient>
  </defs>
  <rect width="420" height="280" fill="url(#bg3)" rx="10"/>
  <rect x="0" y="210" width="420" height="70" fill="#374151"/>
  <rect x="20" y="232" width="55" height="5" rx="2" fill="#fbbf24" opacity="0.7"/>
  <rect x="150" y="232" width="55" height="5" rx="2" fill="#fbbf24" opacity="0.7"/>
  <rect x="290" y="232" width="55" height="5" rx="2" fill="#fbbf24" opacity="0.7"/>
  <!-- Box rigid truck — shorter, square body -->
  <rect x="30" y="120" width="200" height="98" rx="5" fill="#1e3a8a"/>
  <rect x="32" y="122" width="196" height="14" rx="3" fill="#F97316"/>
  <text x="130" y="168" text-anchor="middle" font-family="Montserrat,Arial,sans-serif" font-weight="700" font-size="12" fill="white">ALFA EXPRESS</text>
  <text x="130" y="184" text-anchor="middle" font-family="Montserrat,Arial,sans-serif" font-size="9" fill="#fbbf24" letter-spacing="1">BOX RIGID</text>
  <!-- rear door -->
  <rect x="225" y="120" width="5" height="98" rx="2" fill="#162d6e"/>
  <!-- Cab (attached, shorter) -->
  <rect x="230" y="130" width="120" height="88" rx="5" fill="#1d4ed8"/>
  <rect x="238" y="138" width="65" height="48" rx="3" fill="#93c5fd" opacity="0.85"/>
  <rect x="306" y="142" width="36" height="40" rx="2" fill="#bfdbfe" opacity="0.75"/>
  <line x1="305" y1="138" x2="305" y2="218" stroke="rgba(255,255,255,0.2)" stroke-width="1.5"/>
  <rect x="338" y="178" width="20" height="24" rx="3" fill="#374151"/>
  <rect x="340" y="150" width="15" height="10" rx="2" fill="#fef3c7"/>
  <rect x="341" y="142" width="11" height="5" rx="2" fill="#F97316"/>
  <!-- Wheels -->
  <circle cx="90"  cy="222" r="20" fill="#111827"/><circle cx="90"  cy="222" r="13" fill="#374151"/><circle cx="90"  cy="222" r="5" fill="#111827"/>
  <circle cx="175" cy="222" r="20" fill="#111827"/><circle cx="175" cy="222" r="13" fill="#374151"/><circle cx="175" cy="222" r="5" fill="#111827"/>
  <circle cx="305" cy="222" r="20" fill="#111827"/><circle cx="305" cy="222" r="13" fill="#374151"/><circle cx="305" cy="222" r="5" fill="#111827"/>
  <circle cx="346" cy="223" r="16" fill="#111827"/><circle cx="346" cy="223" r="10" fill="#374151"/>
</svg>
